<?xml version="1.0" standalone="no"?><!DOCTYPE svg PUBLIC "-//W3C//DTD SVG 1.1//EN" "http://www.w3.org/Graphics/SVG/1.1/DTD/svg11.dtd"><svg t="1538193193181" class="icon" style="" viewBox="0 0 1024 1024" version="1.1" xmlns="http://www.w3.org/2000/svg" p-id="1977" xmlns:xlink="http://www.w3.org/1999/xlink" width="32" height="32"><defs><style type="text/css"></style></defs><path d="M511.3 978.6c-62.8 0-123.8-12.3-181.1-36.6-55.4-23.4-105.2-57-147.9-99.7S106 749.8 82.5 694.4C58.3 637 46 576 46 513.2c0-62.8 12.3-123.8 36.6-181.1 23.4-55.4 57-105.2 99.7-147.9s92.5-76.3 147.9-99.7c57.4-24.3 118.3-36.6 181.1-36.6s123.8 12.3 181.1 36.6c55.4 23.4 105.2 57 147.9 99.7s76.3 92.5 99.7 147.9c24.3 57.4 36.6 118.3 36.6 181.1S964.3 637 940 694.3c-23.4 55.4-57 105.2-99.7 147.9s-92.5 76.3-147.9 99.7c-57.3 24.4-118.3 36.7-181.1 36.7z m0-894.1C275 84.5 82.7 276.8 82.7 513.2c0 236.4 192.3 428.7 428.7 428.7 236.4 0 428.7-192.3 428.7-428.7C940 276.8 747.7 84.5 511.3 84.5z" fill="#515151" p-id="1978"></path><path d="M610.1 319.8H290.5c-10.1 0-18.4-8.2-18.4-18.4s8.2-18.4 18.4-18.4h319.6c10.1 0 18.4 8.2 18.4 18.4s-8.3 18.4-18.4 18.4zM724.8 319.8h-39.7c-10.1 0-18.4-8.2-18.4-18.4s8.2-18.4 18.4-18.4h39.7c10.1 0 18.4 8.2 18.4 18.4s-8.3 18.4-18.4 18.4zM732.1 531.6H290.5c-10.1 0-18.4-8.2-18.4-18.4s8.2-18.4 18.4-18.4h441.6c10.1 0 18.4 8.2 18.4 18.4s-8.2 18.4-18.4 18.4zM732.1 743.3H290.5c-10.1 0-18.4-8.2-18.4-18.4s8.2-18.4 18.4-18.4h441.6c10.1 0 18.4 8.2 18.4 18.4s-8.2 18.4-18.4 18.4z" fill="#515151" p-id="1979"></path></svg>